
<svg width="91" height="107" viewBox="0 0 91 107" fill="none" xmlns="http://www.w3.org/2000/svg">
<g id="Group 6">
<path id="Path" fill-rule="evenodd" clip-rule="evenodd" d="M0.930481 27.8806V81.7502L42.8987 105.786L90.2859 77.7613V23.8917" fill="#FF9271"/>
<path id="Path_2" d="M42.8987 51.9167V105.786L90.2859 77.7613V23.8917L42.8987 51.9167Z" fill="#DF5C34"/>
<path id="Path_3" d="M0.930481 27.8807L49.6244 0.125L90.2859 23.8917L42.8987 51.9167L0.930481 27.8807Z" fill="#F47B56"/>
<path id="Shape" fill-rule="evenodd" clip-rule="evenodd" d="M58.2204 15.6189C53.8792 13.2418 48.9501 12.156 44.0132 12.4893C38.8335 12.5807 33.7728 14.0599 29.3577 16.7733C27.0421 18.0916 25.1999 20.1066 24.0924 22.5322C23.1692 24.6325 23.1692 27.0244 24.0924 29.1248C25.2104 31.5071 27.0719 33.4609 29.3961 34.6913C32.2759 36.3193 35.4507 37.357 38.7352 37.7439C42.3487 38.2441 46.0179 38.1792 49.6116 37.5515C52.9092 37.0498 56.0772 35.9083 58.9378 34.1911C59.9308 33.5841 60.8544 32.8701 61.6922 32.0619C62.3276 31.4593 62.8947 30.7883 63.3832 30.0611C63.7215 29.5216 63.9966 28.9449 64.2031 28.3424C64.3465 27.9666 64.4621 27.5808 64.549 27.188C64.5566 27.0428 64.5566 26.8972 64.549 26.7519L59.7962 26.4826L59.6168 27.2906C59.3589 28.1046 58.921 28.8499 58.3357 29.4711C57.4608 30.4868 56.4267 31.3531 55.2739 32.0363C51.9421 34.012 48.1285 35.0242 44.2566 34.9606C40.3677 35.1251 36.5095 34.206 33.1112 32.3056C29.9982 30.4715 28.3969 28.1885 28.3969 25.6233C28.3712 23.0067 29.8701 20.7536 32.8935 18.8639C36.2157 16.8378 40.021 15.7436 43.9108 15.6959C47.581 15.4541 51.2438 16.2685 54.4669 18.043C57.4988 19.8387 58.1308 21.288 56.3629 22.3911C55.0671 23.0889 53.508 23.0889 52.2122 22.3911L43.8723 17.4787L40.2725 19.7233L41.5536 20.4928H40.849C40.1592 20.5312 39.4759 20.6474 38.8121 20.8391C37.9796 21.0554 37.1848 21.3971 36.4549 21.8524C34.9035 22.589 33.9086 24.148 33.8927 25.8669C33.9696 27.4574 34.9944 28.8426 36.9929 30.0226C39.1063 31.2372 41.5132 31.8452 43.9492 31.7798C46.3036 31.8259 48.6241 31.2129 50.6492 30.0098C51.5181 29.5175 52.2426 28.8054 52.7502 27.9448C53.0553 27.482 53.2322 26.9465 53.2626 26.3928C53.2343 26.1591 53.174 25.9303 53.0833 25.713L54.0569 25.79C54.9488 25.8162 55.8403 25.7256 56.7088 25.5206C57.7656 25.307 58.7762 24.9075 59.6937 24.3406C61.6281 23.1735 62.448 21.7883 62.2558 20.1978C62.0637 18.6074 60.7057 17.0811 58.2204 15.6189ZM47.075 23.7506C47.9063 24.1117 48.5056 24.8606 48.6764 25.7515H48.7276C48.7408 26.5714 48.2682 27.3215 47.5234 27.6626C46.5394 28.2445 45.4119 28.5378 44.2695 28.5091C43.0809 28.5366 41.9073 28.2395 40.8746 27.6498C40.0535 27.2895 39.4803 26.5259 39.3629 25.6361C39.3822 24.7816 39.8766 24.0095 40.644 23.6352C41.5787 23.0751 42.6557 22.7989 43.7442 22.84C44.9156 22.8415 46.0654 23.1559 47.075 23.7506Z" fill="#3E2928"/>
</g>
</svg>
