
<svg width="418" height="359" fill="none" xmlns="http://www.w3.org/2000/svg"><path d="M175.018 355.203-44.687 225.211c-6.995-3.938-12.99-10.389-6.175-14.622L169.625 83.367c3.305-2.052 8.327-3.399 11.696-1.437l230.595 134.007c6.994 4.066 8.25 15.392 1.281 19.496L203.971 354.998a29.181 29.181 0 0 1-28.953.205Z" fill="#5B36A0"/><path d="M175.018 349.203-44.687 219.211c-6.995-3.938-12.99-10.389-6.175-14.622L169.625 77.367c3.305-2.052 8.327-3.399 11.696-1.437l230.595 134.007c6.994 4.066 8.25 15.392 1.281 19.496L203.971 348.998a29.181 29.181 0 0 1-28.953.205Z" fill="#6862E6"/><path d="m193.133 177.693-43.352 24.767s66.783 40.8 80.439 46.546l24.968-35.913" fill="url(#a)" style="mix-blend-mode:multiply" opacity=".25"/><path d="m178.157 296.513-43.365-24.715-43.364 24.767s22.585 13.801 44.171 26.473c13.708-9.71 27.428-19.521 42.558-26.525Z" fill="url(#b)" style="mix-blend-mode:multiply" opacity=".25"/><path d="m84.728 143.883-27.505 15.712s2.331 14.404 15.988 20.15l36.011-23.087" fill="url(#c)" style="mix-blend-mode:multiply" opacity=".46"/><ellipse cx="98.192" cy="147.898" rx="16.59" ry="11.697" fill="#68E1FD"/><ellipse cx="98.179" cy="140.997" rx="12.427" ry="5.092" fill="#974C26"/><path fill-rule="evenodd" clip-rule="evenodd" d="M97.474 125.619c.18 2.296.257 4.591.257 6.887a84.025 84.025 0 0 1-.462 8.607 91.196 91.196 0 0 1-2.985-4.425 82.558 82.558 0 0 1-3.676-6.349 41.955 41.955 0 0 1-2.678-6.003 50.195 50.195 0 0 1-1.96-6.888 34.022 34.022 0 0 1-.346-1.846v-.757c-.102-1.206-.205-2.488-.205-3.771a31.778 31.778 0 0 1 2.473-12.71 54.854 54.854 0 0 1 8.865 21.714c.085.462.166.928.243 1.398 0-.09.18.846.18 1.193l.128 1.167c.06.59.115 1.184.166 1.783Zm-6.264-18.932h-.013.013Zm0 0c.315-.018.631.017.935.103-.307-.342-.62-.676-.935-1 .066.295.066.601 0 .897Z" fill="#999A1C"/><path fill-rule="evenodd" clip-rule="evenodd" d="M105.494 128.338a64.809 64.809 0 0 1-3.498 5.938c-1.55 2.424-3.266 4.759-4.97 7.029-.115-1.68-.115-3.425-.115-5.336 0-2.449.102-4.886.333-7.323.158-2.19.488-4.365.986-6.503a50.156 50.156 0 0 1 2.063-6.862c.23-.59.474-1.167.717-1.744l.064-.206.256-.474a46.284 46.284 0 0 1 1.858-3.284 31.743 31.743 0 0 1 8.967-9.363 54.856 54.856 0 0 1-4.266 23.087l-.55 1.283-.5 1.103-.525 1.064a68.593 68.593 0 0 1-.82 1.591Zm5.393-20.099a2.07 2.07 0 0 1-.435.783c.25.132.478.3.679.5-.069-.41-.15-.838-.244-1.283Z" fill="#999A1C"/><path fill-rule="evenodd" clip-rule="evenodd" d="M105.75 137.919a65.064 65.064 0 0 1-3.843 2.078c-1.614.808-3.267 1.526-4.92 2.219a55.418 55.418 0 0 1 1.653-2.925 84.46 84.46 0 0 1 2.562-3.848 26.51 26.51 0 0 1 2.626-3.193 31.534 31.534 0 0 1 3.331-3.04l.948-.705.103-.09.294-.18c.679-.41 1.358-.808 2.063-1.167a19.934 19.934 0 0 1 7.84-2.168 34.457 34.457 0 0 1-9.736 11.069l-.717.526-.615.436-.628.398-.961.59Zm9.352-9.107a1.284 1.284 0 0 1-.487.283v.012c.086.161.146.334.179.513.112-.265.214-.534.308-.808ZM97.474 125.619c.18 2.296.257 4.591.257 6.887a84.025 84.025 0 0 1-.462 8.607 91.196 91.196 0 0 1-2.985-4.425 82.558 82.558 0 0 1-3.676-6.349 41.955 41.955 0 0 1-2.678-6.003 50.195 50.195 0 0 1-1.96-6.888 34.022 34.022 0 0 1-.346-1.846v-.757c-.102-1.206-.205-2.488-.205-3.771a31.778 31.778 0 0 1 2.473-12.71 54.854 54.854 0 0 1 8.865 21.714c.085.462.166.928.243 1.398 0-.09.18.846.18 1.193l.128 1.167c.06.59.115 1.184.166 1.783Zm-6.264-18.932h-.013.013Zm0 0c.315-.018.631.017.935.103-.307-.342-.62-.676-.935-1 .066.295.066.601 0 .897Z" fill="#999A1C"/><path fill-rule="evenodd" clip-rule="evenodd" d="M105.494 128.338a64.809 64.809 0 0 1-3.498 5.938c-1.55 2.424-3.266 4.759-4.97 7.029-.115-1.68-.115-3.425-.115-5.336 0-2.449.102-4.886.333-7.323.158-2.19.488-4.365.986-6.503a50.156 50.156 0 0 1 2.063-6.862c.23-.59.474-1.167.717-1.744l.064-.206.256-.474a46.284 46.284 0 0 1 1.858-3.284 31.743 31.743 0 0 1 8.967-9.363 54.856 54.856 0 0 1-4.266 23.087l-.55 1.283-.5 1.103-.525 1.064a68.593 68.593 0 0 1-.82 1.591Zm5.393-20.099a2.07 2.07 0 0 1-.435.783c.25.132.478.3.679.5-.069-.41-.15-.838-.244-1.283Z" fill="#999A1C"/><path fill-rule="evenodd" clip-rule="evenodd" d="M105.75 137.919a65.064 65.064 0 0 1-3.843 2.078c-1.614.808-3.267 1.526-4.92 2.219a55.418 55.418 0 0 1 1.653-2.925 84.46 84.46 0 0 1 2.562-3.848 26.51 26.51 0 0 1 2.626-3.193 31.534 31.534 0 0 1 3.331-3.04l.948-.705.103-.09.294-.18c.679-.41 1.358-.808 2.063-1.167a19.934 19.934 0 0 1 7.84-2.168 34.457 34.457 0 0 1-9.736 11.069l-.717.526-.615.436-.628.398-.961.59Zm9.352-9.107a1.284 1.284 0 0 1-.487.283v.012c.086.161.146.334.179.513.112-.265.214-.534.308-.808Z" fill="#999A1C"/><path d="m210.35 168.022-23.994 11.543a5.527 5.527 0 0 0-3.125 4.765 5.53 5.53 0 0 0 2.74 4.996l56.868 33.219a5.517 5.517 0 0 0 7.43-1.782l13.823-21.523" fill="#A1482D"/><path d="M340.854 112.344 149.525 1.962a8.626 8.626 0 0 0-8.627.01 8.645 8.645 0 0 0-4.312 7.48v114.833a7.183 7.183 0 0 0 3.587 6.22L344.146 248.39a4.62 4.62 0 0 0 4.632.003 4.631 4.631 0 0 0 2.312-4.018V130.018a20.398 20.398 0 0 0-10.236-17.674Z" fill="#F47B56"/><path d="m149.537 10.646 185.552 106.879a13.034 13.034 0 0 1 6.521 11.287v86.076a4.71 4.71 0 0 1-2.345 4.065 4.697 4.697 0 0 1-4.688.014L145.348 110.304a4.643 4.643 0 0 1-2.331-4.027V14.429c0-1.555.827-2.992 2.171-3.772a4.35 4.35 0 0 1 4.349-.011Z" fill="#fff"/><ellipse cx="226.738" cy="168.465" rx="4.036" ry="4.617" transform="rotate(-10.9 226.738 168.465)" fill="#AB643C"/><path opacity=".32" d="m199.41 127.427 86.229 51.869 42.596-24.793-76.109-44.353" fill="url(#d)"/><path d="m305.97 117.102-93.224-56.91a3.225 3.225 0 0 0-3.278.028 3.233 3.233 0 0 0-1.565 2.884V95.53a3.403 3.403 0 0 0 1.627 2.924l93.212 55.704c.997.567 2.22.56 3.21-.019a3.222 3.222 0 0 0 1.594-2.79l.487-30.231a4.541 4.541 0 0 0-2.063-4.015Z" fill="#E2AC00"/><path d="M283.667 133.789c3.343 4.681 9.223 5.99 13.118 2.937 3.894-3.053 4.343-9.324.999-13.993-3.344-4.669-9.224-5.99-13.118-2.937-3.895 3.052-4.343 9.311-.999 13.993Z" fill="#fff"/><path d="m274.52 111.318-38.023-22.92a1.447 1.447 0 0 0-1.862.578 1.451 1.451 0 0 0 .402 1.91l38.022 22.92a1.45 1.45 0 0 0 1.461-2.488ZM272.957 120.629l-52.409-31.59a1.447 1.447 0 0 0-1.74.658 1.45 1.45 0 0 0 .343 1.83l52.345 31.603a1.45 1.45 0 0 0 1.461-2.488v-.013Z" fill="#F2F2F2"/><path d="M287.369 123.387 194.196 66.49a3.225 3.225 0 0 0-3.278.028 3.233 3.233 0 0 0-1.565 2.884v32.411a3.4 3.4 0 0 0 1.615 2.938l93.211 55.703a3.21 3.21 0 0 0 3.248-.025 3.22 3.22 0 0 0 1.569-2.848l.487-30.231a4.542 4.542 0 0 0-2.114-3.963Z" fill="#F47B56"/><path d="M265.065 140.074c3.344 4.681 9.224 5.989 13.119 2.937 3.894-3.053 4.342-9.325.999-13.993-3.344-4.669-9.224-5.99-13.118-2.938-3.895 3.053-4.343 9.312-1 13.994Z" fill="#fff"/><path d="m255.918 117.602-38.048-22.92a1.447 1.447 0 0 0-1.862.578 1.451 1.451 0 0 0 .402 1.91l38.022 22.921a1.45 1.45 0 0 0 1.461-2.489h.025ZM254.343 126.978l-52.397-31.642a1.447 1.447 0 0 0-1.862.579 1.451 1.451 0 0 0 .402 1.91l52.409 31.59a1.45 1.45 0 0 0 1.46-2.488l-.012.051Z" fill="#F2F2F2"/><path d="m263.989 127.209-93.198-56.896a3.226 3.226 0 0 0-4.843 2.911v32.412a3.4 3.4 0 0 0 1.627 2.924l93.211 55.704c1.008.58 2.25.57 3.249-.026a3.218 3.218 0 0 0 1.568-2.847l.487-30.231a4.542 4.542 0 0 0-2.101-3.951Z" fill="#68E1FD"/><path d="m263.989 127.209-93.198-56.896a3.226 3.226 0 0 0-4.843 2.911v32.412a3.4 3.4 0 0 0 1.627 2.924l93.211 55.704c1.008.58 2.25.57 3.249-.026a3.218 3.218 0 0 0 1.568-2.847l.487-30.231a4.542 4.542 0 0 0-2.101-3.951Z" fill="#68E1FD"/><path d="M241.673 143.896c3.343 4.681 9.224 5.99 13.118 2.937 3.895-3.053 4.343-9.325.999-13.993-3.343-4.669-9.224-5.99-13.118-2.937-3.895 3.052-4.304 9.311-.999 13.993Z" fill="#fff"/><path d="m232.526 121.425-38.035-22.92a1.45 1.45 0 0 0-1.461 2.489l38.023 22.919a1.448 1.448 0 0 0 1.46-2.488h.013ZM230.95 130.749l-52.409-31.59a1.447 1.447 0 0 0-1.862.578 1.452 1.452 0 0 0 .402 1.91l52.409 31.59a1.446 1.446 0 0 0 1.862-.578 1.451 1.451 0 0 0-.402-1.91Z" fill="#F2F2F2"/><path d="M141.672 124.028a45.395 45.395 0 0 0-13.208 19.38c-4.638 12.827 6.956 33.784 6.956 33.784l18.038-14.301" fill="#FF8F6F"/><path d="m139.724 293.602-4.893-2.706 1.281-7.003s7.289.692 7.93 3.283" fill="#003B94"/><path d="M141.518 293.499c1.102-.679 2.255-1.282 3.395-1.885 2.831-1.552 6.918-3.155 8.66-6.067a3.39 3.39 0 0 0-.231-3.848c-2.562-3.104-8.173 2.001-11.043-1.436-.563-.68-.832-11.467-.832-11.467l-10.915 2.95s-1.845 21.676-1.64 23.01c.205 1.334 3.959 2.565 3.959 2.565a9.67 9.67 0 0 0 3.151-1.282c1.14-.834.102-11.005 1.563-9.581 1.46 1.423 2.101 6.99 2.101 6.99a7.488 7.488 0 0 0 1.832.051Z" fill="#F47B56"/><path d="m160.568 304.081-4.894-2.668 1.281-7.003s7.289.693 7.93 3.284" fill="#003B94"/><path d="M162.412 303.978c1.102-.68 2.255-1.282 3.395-1.885 2.831-1.552 6.918-3.155 8.66-6.067a3.39 3.39 0 0 0-.23-3.848c-2.563-3.104-8.174 2.001-11.043-1.436-.564-.68-.833-11.467-.833-11.467l-10.915 2.95s-1.857 21.753-1.652 23.036c.205 1.282 3.958 2.565 3.958 2.565a9.669 9.669 0 0 0 3.152-1.283c1.14-.833.102-11.004 1.563-9.581 1.46 1.424 2.101 6.991 2.101 6.991a7.486 7.486 0 0 0 1.844.025Z" fill="#F47B56"/><path d="m125.005 233.614-3.216 43.058s5.125 7.08 22.304 3.142l.166-29.026M144.849 242.144c-.372 3.706 0 44.596 0 44.596s4.752 8.901 25.442 0l-.295-34.746" fill="#3E2928"/><path d="M123.403 247.838c1.41.975 1.896-4.04 3.37-3.18a83.733 83.733 0 0 0 16.961 7.49h.128a1.168 1.168 0 0 1 1.576.577 89.545 89.545 0 0 0 11.133 2.565c4.829.77 8.826-2.808 13.784-3.052 0-19.008.09-73.109-7.994-84.652l-23.918-8.055c-.115 1.975-11.606 15.314-11.325 31.578.321 18.328-2.062 35.618-2.472 41.351-.064.975-1.191 14.34-1.243 15.378Z" fill="#3E2928"/><path d="m164.564 145.73-2.203 21.804s-17.845.719-25.532-4.591v-18.496" fill="#FF8F6F"/><path d="m187.252 131.378-1.819 2.488a59.702 59.702 0 0 0 2.562-6.221c.513-1.449-1.806-2.026-2.318-.577l-.269.744c.222-.77.431-1.543.627-2.322a1.194 1.194 0 1 0-2.318-.577 62.377 62.377 0 0 1-1.807 5.952c.392-1.734.674-3.49.846-5.259.154-1.526-2.242-1.462-2.383 0a37.955 37.955 0 0 1-1.076 5.964c0-.684-.064-1.368-.192-2.052a1.213 1.213 0 0 0-.5-.86 9.622 9.622 0 0 0-.23-.795 1.206 1.206 0 0 0-2.345.359l-.154 8.979a10.707 10.707 0 0 1-1.678 2.565 41.339 41.339 0 0 1 3.331 2.565 34.458 34.458 0 0 1 2.716 2.565 65.078 65.078 0 0 0 2.216-2.924c.088-.075.166-.161.231-.257a255.513 255.513 0 0 1 6.61-9.337c.948-1.052-1.14-2.219-2.05-1Z" fill="#FFB5A9"/><path d="M153.24 125.85s8.429 2.27 11.85 7.695a96.485 96.485 0 0 1 5.649 11.659l6.226-9.684s7.559 2.322 10.556 6.042c0 0-8.967 19.623-16.782 21.304-7.814 1.68-16.116-11.518-16.116-11.518s-1.716 5.515-1.383-.372" fill="#FF8F6F"/><path d="M158.595 146.82a17.086 17.086 0 0 1-5.342-7.618c-1.013-3.451.256-6.478 1.434-9.684a31.236 31.236 0 0 0 2.204-9.966c.102-3.36-.282-6.721-.513-10.069a.972.972 0 0 1 0-.436c-1.127-3.783-3.433-6.99-7.981-7.375-11.773-1-12.439 12.057-12.349 17.367.089 5.31.653 8.901-3.254 11.12-3.908 2.219-6.726 8.042-2.998 12.749 3.728 4.707.384 2.989-2.101 7.17s-1.845 9.402 3.254 11.287c5.099 1.885 28.799-1.655 30.976-3.848a4.529 4.529 0 0 0 1.115-3.206 12.448 12.448 0 0 0-4.445-7.491Z" fill="#007F68"/><path fill-rule="evenodd" clip-rule="evenodd" d="M173.506 48.88a18.805 18.805 0 0 0-3.33-9.748 16.29 16.29 0 0 0-7.508-6.438 6.998 6.998 0 0 0-5.047-.257 6.51 6.51 0 0 0-3.638 3.207 11.062 11.062 0 0 0-1.179 5.784 19.022 19.022 0 0 0 1.64 6.888 22.364 22.364 0 0 0 3.971 6.208 14.095 14.095 0 0 0 5.125 3.77 8.567 8.567 0 0 0 2.165.552 6.397 6.397 0 0 0 1.703 0 4.93 4.93 0 0 0 1.282-.36c.259-.101.512-.221.755-.358l.257-.18-1.55-2.886-.513.283a3.417 3.417 0 0 1-1.665.307 6.462 6.462 0 0 1-2.562-.5 11.818 11.818 0 0 1-5.471-5.13 15.303 15.303 0 0 1-2.562-7.696 7.252 7.252 0 0 1 2.063-5.926 4.773 4.773 0 0 1 5.329-.68 12.137 12.137 0 0 1 5.675 4.849 13.887 13.887 0 0 1 2.473 7.247c.094 2.625-.479 3.694-1.717 3.206a2.24 2.24 0 0 1-1.05-.936 2.815 2.815 0 0 1-.462-1.45l-.256-7.208-2.562-1v1.141l-.231-.41a5.404 5.404 0 0 0-.922-1.013 4.638 4.638 0 0 0-1.396-.873 2.739 2.739 0 0 0-3.113.488 4.774 4.774 0 0 0-1.192 3.848 9.69 9.69 0 0 0 1.486 4.86 7.115 7.115 0 0 0 3.357 3.015c.593.269 1.255.35 1.896.23a2.236 2.236 0 0 0 1.05-.448c.12-.132.224-.279.308-.436l.307.603c.296.518.667.99 1.102 1.398a4.91 4.91 0 0 0 1.716 1.154 2.625 2.625 0 0 0 3.178-.551 6.415 6.415 0 0 0 1.088-4.554Zm-8.455-2.527a2.565 2.565 0 0 1-.525 1.899 1.28 1.28 0 0 1-1.486.23 3.448 3.448 0 0 1-1.627-1.462 4.804 4.804 0 0 1-.73-2.385c-.09-.673.116-1.35.563-1.86a1.396 1.396 0 0 1 1.576-.205 3.253 3.253 0 0 1 1.55 1.41c.425.72.659 1.538.679 2.373ZM324.764 187.761a18.74 18.74 0 0 0-3.331-9.748 16.312 16.312 0 0 0-7.354-6.592 7.087 7.087 0 0 0-5.06-.257 6.566 6.566 0 0 0-3.638 3.219 11.006 11.006 0 0 0-1.179 5.772c.11 2.379.667 4.715 1.64 6.888a22.403 22.403 0 0 0 3.971 6.22 14.1 14.1 0 0 0 5.125 3.759 8.57 8.57 0 0 0 2.152.564 6.58 6.58 0 0 0 1.717 0 5.663 5.663 0 0 0 1.281-.359c.26-.103.512-.223.756-.359l.256-.18-1.55-2.886-.513.282a3.532 3.532 0 0 1-1.665.308c-.88 0-1.75-.175-2.562-.513a11.867 11.867 0 0 1-5.535-4.964 15.256 15.256 0 0 1-2.562-7.695 7.251 7.251 0 0 1 2.012-5.964 4.786 4.786 0 0 1 5.329-.667 12.154 12.154 0 0 1 5.662 4.835 13.953 13.953 0 0 1 2.473 7.26c.077 2.629-.449 3.694-1.73 3.206a2.242 2.242 0 0 1-1.05-.936 2.9 2.9 0 0 1-.461-1.449l-.257-7.209-2.562-.987v1.141l-.243-.41a5.557 5.557 0 0 0-.923-1.026 4.576 4.576 0 0 0-1.396-.872 2.724 2.724 0 0 0-3.1.487 4.721 4.721 0 0 0-1.192 3.848 9.66 9.66 0 0 0 1.499 4.874 7.119 7.119 0 0 0 3.357 3.027 3.08 3.08 0 0 0 1.883.218 2.185 2.185 0 0 0 1.05-.449c.118-.134.221-.28.308-.436l.307.602c.299.517.67.988 1.102 1.399a5.052 5.052 0 0 0 1.717 1.154 2.637 2.637 0 0 0 3.177-.552 6.42 6.42 0 0 0 1.089-4.553Zm-8.443-2.527a2.567 2.567 0 0 1-.538 1.899 1.28 1.28 0 0 1-1.486.218 3.478 3.478 0 0 1-1.627-1.475 4.759 4.759 0 0 1-.73-2.373 2.321 2.321 0 0 1 .577-1.86 1.394 1.394 0 0 1 1.575-.192 3.2 3.2 0 0 1 1.538 1.411c.431.718.669 1.535.691 2.372Z" fill="#F47B56"/><path d="m66.139 232.704-43.365-24.703-43.351 24.754s24.122 15.083 45.709 27.756c13.707-9.697 25.89-20.791 41.007-27.807Z" fill="url(#e)" style="mix-blend-mode:multiply" opacity=".25"/><defs><linearGradient id="a" x1="192.715" y1="185.543" x2="181.685" y2="218.24" gradientUnits="userSpaceOnUse"><stop stop-color="#78B46A"/><stop offset=".03" stop-color="#7F3500"/><stop offset="1" stop-color="#fff"/></linearGradient><linearGradient id="b" x1="120.536" y1="252.477" x2="101.981" y2="310.838" gradientUnits="userSpaceOnUse"><stop stop-color="#78B46A"/><stop offset=".03" stop-color="#7F3500"/><stop offset="1" stop-color="#fff"/></linearGradient><linearGradient id="c" x1="74.7" y1="130.002" x2="57.536" y2="169.625" gradientUnits="userSpaceOnUse"><stop stop-color="#78B46A"/><stop offset=".03" stop-color="#7F3500"/><stop offset="1" stop-color="#fff"/></linearGradient><linearGradient id="d" x1="315.656" y1="165.452" x2="308.951" y2="148.459" gradientUnits="userSpaceOnUse"><stop stop-color="#fff" stop-opacity=".01"/><stop offset=".99" stop-color="#DC841E"/></linearGradient><linearGradient id="e" x1="9.555" y1="188.349" x2="-9.967" y2="246.801" gradientUnits="userSpaceOnUse"><stop stop-color="#78B46A"/><stop offset=".03" stop-color="#7F3500"/><stop offset="1" stop-color="#fff"/></linearGradient></defs></svg>